<?xml version="1.0" encoding="UTF-8" standalone="no"?>
<svg
   xmlns:dc="http://purl.org/dc/elements/1.1/"
   xmlns:cc="http://creativecommons.org/ns#"
   xmlns:rdf="http://www.w3.org/1999/02/22-rdf-syntax-ns#"
   xmlns:svg="http://www.w3.org/2000/svg"
   xmlns="http://www.w3.org/2000/svg"
   xmlns:xlink="http://www.w3.org/1999/xlink"
   xmlns:sodipodi="http://sodipodi.sourceforge.net/DTD/sodipodi-0.dtd"
   xmlns:inkscape="http://www.inkscape.org/namespaces/inkscape"
   inkscape:version="1.0 (4035a4fb49, 2020-05-01)"
   height="98.568069"
   width="300"
   sodipodi:docname="logo2.svg"
   id="svg23"
   version="1.1"
   class="iconLeft"
   viewBox="0 0 300 98.568069"
   data-v-fde0c5aa="">
  <metadata
     id="metadata27">
    <rdf:RDF>
      <cc:Work
         rdf:about="">
        <dc:format>image/svg+xml</dc:format>
        <dc:type
           rdf:resource="http://purl.org/dc/dcmitype/StillImage" />
        <dc:title></dc:title>
      </cc:Work>
    </rdf:RDF>
  </metadata>
  <sodipodi:namedview
     fit-margin-bottom="0"
     fit-margin-right="0"
     fit-margin-left="0"
     inkscape:current-layer="svg23"
     inkscape:window-maximized="1"
     inkscape:window-y="-8"
     inkscape:window-x="70"
     inkscape:cy="44.965723"
     inkscape:cx="142.54427"
     inkscape:zoom="2.0953931"
     lock-margins="true"
     fit-margin-top="5"
     showgrid="false"
     id="namedview25"
     inkscape:window-height="1057"
     inkscape:window-width="1842"
     inkscape:pageshadow="2"
     inkscape:pageopacity="0"
     guidetolerance="10"
     gridtolerance="10"
     objecttolerance="10"
     borderopacity="1"
     bordercolor="#666666"
     pagecolor="#ffffff" />
  <!---->
  <defs
     id="defs2"
     data-v-fde0c5aa="">
    <!---->
    <linearGradient
       gradientUnits="userSpaceOnUse"
       y2="15.381005"
       x2="29.780109"
       y1="15.381005"
       x1="10.775746"
       gradientTransform="matrix(1.0745427,0,0,0.93062841,0,58.995783)"
       id="linearGradient906"
       xlink:href="#b4005672-430f-498c-b3e5-1716a9cb4a73"
       inkscape:collect="always" />
    <linearGradient
       gradientTransform="translate(0,58.995783)"
       gradientUnits="userSpaceOnUse"
       y2="0"
       x2="17.365999"
       y1="0"
       x1="0"
       id="linearGradient908"
       xlink:href="#b4005672-430f-498c-b3e5-1716a9cb4a73"
       inkscape:collect="always" />
    <linearGradient
       gradientTransform="translate(0,58.995783)"
       gradientUnits="userSpaceOnUse"
       y2="0"
       x2="32"
       y1="0"
       x1="0"
       id="linearGradient910"
       xlink:href="#b4005672-430f-498c-b3e5-1716a9cb4a73"
       inkscape:collect="always" />
  </defs>
  <rect
     style="stroke-width:0.999997"
     id="rect4"
     class="logo-background-square"
     height="93.568069"
     width="300"
     y="5"
     x="0"
     fill="transparent"
     data-v-fde0c5aa="" />
  <defs
     id="defs6"
     data-v-fde0c5aa="">
    <!---->
  </defs>
  <g
     transform="matrix(3.6731436,0,0,3.6731436,103.12004,28.676921)"
     fill="#000000"
     id="c55f980b-ee5b-460c-8e31-a447bba8edcb"
     data-v-fde0c5aa="">
    <path
       id="path8"
       d="M 4.35,10.5 H 1.16 V 1.36 h 2.69 v 0 q 1.01,0 1.9,0.31 v 0 0 q 0.89,0.3 1.54,0.88 v 0 0 q 0.66,0.59 1.05,1.42 v 0 0 Q 8.72,4.8 8.72,5.85 v 0 0 q 0,0.98 -0.31,1.83 v 0 0 Q 8.11,8.53 7.54,9.16 v 0 0 Q 6.97,9.79 6.17,10.14 v 0 0 Q 5.36,10.5 4.35,10.5 Z M 2.56,2.59 v 6.69 h 1.68 v 0 q 0.6,0 1.15,-0.26 v 0 0 Q 5.94,8.76 6.34,8.3 v 0 0 Q 6.75,7.84 6.99,7.22 v 0 0 Q 7.22,6.59 7.22,5.85 v 0 0 q 0,-0.74 -0.21,-1.34 v 0 0 Q 6.79,3.91 6.4,3.48 v 0 0 Q 6.01,3.05 5.48,2.82 v 0 0 Q 4.96,2.59 4.35,2.59 v 0 z m 10.95,0.6 v 0 0 q 0.77,0.04 1.37,0.32 v 0 0 q 0.25,0.13 0.51,0.31 v 0 0 Q 15.64,4 15.83,4.27 v 0 0 q 0.2,0.27 0.32,0.62 v 0 0 q 0.12,0.36 0.12,0.84 v 0 4.77 H 15.04 L 14.87,9.63 v 0 q 0,0 -0.14,0.17 v 0 0 q -0.14,0.17 -0.41,0.36 v 0 0 q -0.26,0.19 -0.65,0.35 v 0 0 q -0.38,0.16 -0.86,0.16 v 0 0 q -1.16,0 -1.88,-0.53 v 0 0 Q 10.22,9.62 10.22,8.46 v 0 0 q 0,-0.68 0.32,-1.12 v 0 0 q 0.32,-0.44 0.79,-0.7 v 0 0 q 0.47,-0.26 1,-0.35 v 0 0 q 0.52,-0.1 0.93,-0.1 v 0 h 1.69 v -0.48 0 Q 14.9,5.07 14.61,4.75 v 0 0 Q 14.32,4.42 13.91,4.32 v 0 0 Q 13.5,4.21 13.01,4.29 v 0 0 q -0.48,0.08 -0.9,0.21 v 0 0 q -0.42,0.13 -0.73,0.28 v 0 0 q -0.31,0.15 -0.39,0.2 v 0 -1.12 0 Q 11.38,3.68 11.8,3.53 v 0 0 Q 12.17,3.4 12.61,3.3 v 0 0 q 0.45,-0.11 0.9,-0.11 z M 12.92,9.6 v 0 0 q 0.84,0 1.37,-0.39 v 0 0 q 0.54,-0.4 0.66,-1.05 v 0 -1.02 h -0.74 v 0 q -0.27,0 -0.71,0.02 v 0 0 q -0.44,0.02 -0.86,0.13 v 0 0 q -0.42,0.12 -0.73,0.38 v 0 0 q -0.3,0.25 -0.3,0.73 v 0 0 q 0,0.29 0.12,0.52 v 0 0 q 0.13,0.22 0.32,0.38 v 0 0 q 0.19,0.15 0.42,0.23 v 0 0 Q 12.71,9.6 12.92,9.6 Z M 26.24,3.19 v 0 0 q 0.51,0 0.98,0.12 v 0 0 q 0.46,0.12 0.8,0.47 v 0 0 q 0.34,0.35 0.54,0.99 v 0 0 q 0.2,0.63 0.2,1.66 v 0 4.07 h -1.33 v -4.21 0 q 0,-0.34 -0.05,-0.7 v 0 0 Q 27.34,5.24 27.21,4.93 v 0 0 Q 27.08,4.63 26.82,4.45 v 0 0 Q 26.57,4.26 26.17,4.26 v 0 0 q -0.52,0 -0.88,0.23 v 0 0 Q 24.93,4.72 24.71,5.1 v 0 0 q -0.22,0.37 -0.32,0.86 v 0 0 q -0.1,0.49 -0.1,1 v 0 3.54 h -1.33 v -4.21 0 q 0,-0.34 -0.04,-0.7 v 0 0 Q 22.88,5.24 22.74,4.93 v 0 0 Q 22.6,4.63 22.35,4.45 v 0 0 Q 22.11,4.26 21.7,4.26 v 0 0 q -0.52,0 -0.87,0.23 v 0 0 Q 20.47,4.72 20.24,5.1 v 0 0 q -0.22,0.37 -0.32,0.86 v 0 0 q -0.1,0.49 -0.1,1 v 0 3.54 H 18.51 V 3.36 h 1.09 l 0.21,1.05 v 0 q 0,0 0.11,-0.2 v 0 0 q 0.11,-0.19 0.37,-0.42 v 0 0 q 0.26,-0.22 0.69,-0.41 v 0 0 q 0.43,-0.19 1.06,-0.19 v 0 0 q 0.54,0 0.93,0.22 v 0 0 q 0.4,0.22 0.64,0.48 v 0 0 q 0.25,0.27 0.35,0.49 v 0 0 q 0.11,0.21 0.11,0.21 v 0 0 q 0.14,-0.33 0.38,-0.6 v 0 0 Q 24.7,3.72 24.99,3.55 v 0 0 q 0.29,-0.18 0.62,-0.27 v 0 0 Q 25.94,3.19 26.24,3.19 Z M 36.43,3.36 V 10.5 H 35.11 V 3.36 Z m 0.18,-1.71 v 0 0 q 0,0.37 -0.25,0.62 v 0 0 q -0.25,0.25 -0.6,0.25 v 0 0 q -0.37,0 -0.62,-0.25 v 0 0 Q 34.89,2.02 34.89,1.65 v 0 0 q 0,-0.35 0.25,-0.6 v 0 0 Q 35.39,0.8 35.76,0.8 v 0 0 q 0.35,0 0.6,0.25 v 0 0 q 0.25,0.25 0.25,0.6 z m 6.1,3.47 h -1.89 v 3.34 0 q 0,1.13 0.97,1.13 v 0 0 q 0.41,0 0.83,-0.21 v 0 1.02 0 q -0.58,0.27 -1.22,0.27 v 0 0 q -0.93,0 -1.44,-0.53 v 0 0 Q 39.45,9.62 39.45,8.6 v 0 -3.48 H 38.18 V 4.05 h 1.27 v -2.1 l 1.37,-0.33 v 2.43 h 1.89 z" />
  </g>
  <defs
     id="defs16"
     data-v-fde0c5aa="">
    <linearGradient
       y2="0"
       x2="1"
       y1="0"
       x1="0"
       id="b4005672-430f-498c-b3e5-1716a9cb4a73"
       gradientTransform="rotate(25)"
       data-v-fde0c5aa="">
      <stop
         id="stop11"
         stop-opacity="1"
         stop-color="#E90DCA"
         offset="0%"
         data-v-fde0c5aa="" />
      <stop
         id="stop13"
         stop-opacity="1"
         stop-color="#1536F1"
         offset="100%"
         data-v-fde0c5aa="" />
    </linearGradient>
  </defs>
  <g
     style="fill:url(#linearGradient910)"
     transform="matrix(1.6994028,0,0,1.6994028,40,22.551961)"
     fill="url(#b4005672-430f-498c-b3e5-1716a9cb4a73)"
     stroke="none"
     id="48872a2a-e8dc-41dd-94b4-812be566e6ce"
     data-v-fde0c5aa="">
    <path
       style="fill:url(#linearGradient906)"
       id="path18"
       d="M 11.579,32 H 32 L 21.789,14.314 Z" />
    <circle
       style="fill:url(#linearGradient908)"
       id="circle20"
       r="8.6829996"
       cy="8.6829996"
       cx="8.6829996" />
  </g>
  <!---->
</svg>
