<?xml version="1.0" encoding="UTF-8" standalone="no"?>
<svg
   xmlns:dc="http://purl.org/dc/elements/1.1/"
   xmlns:cc="http://creativecommons.org/ns#"
   xmlns:rdf="http://www.w3.org/1999/02/22-rdf-syntax-ns#"
   xmlns:svg="http://www.w3.org/2000/svg"
   xmlns="http://www.w3.org/2000/svg"
   width="241.08919mm"
   height="86.015411mm"
   viewBox="0 0 241.08919 86.01541"
   version="1.1"
   id="svg8">
  <defs
     id="defs2">
    <rect
       x="1142.882"
       y="346.9953"
       width="1138.4419"
       height="480.83261"
       id="rect3439" />
    <rect
       x="1094.0862"
       y="811.66882"
       width="575.71429"
       height="364.28571"
       id="rect3385" />
    <rect
       x="620.63312"
       y="573.26947"
       width="40.406101"
       height="79.802055"
       id="rect3352" />
    <path
       id="p1"
       d="M 0,0 H 250 V 250 H 0 V 0" />
    <path
       id="p2"
       d="m 21.12,7.17 c 0.71,-0.04 2.13,-0.11 2.83,-0.15 67.34,0.01 134.69,0.01 202.03,0 3.82,0.02 7.87,0.67 10.91,3.16 4.4,3.08 6.24,8.62 6.09,13.82 -0.06,68.02 0.09,136.04 -0.08,204.06 0.01,8.34 -7.58,15.27 -15.82,14.89 -67.72,0.05 -135.43,0 -203.14,0.03 -5.18,0.14 -10.68,-1.7 -13.75,-6.08 C 7.7,233.87 7.05,229.84 7.02,226.04 7.05,158.34 7,90.63 7.05,22.93 6.71,15.01 13.09,7.52 21.12,7.17" />
    <path
       id="p3"
       d="m 16.94,15.93 c 1.94,-1.67 4.6,-1.95 7.06,-1.99 67.34,0 134.68,0 202.02,0 2.44,0.04 5.1,0.32 7.03,1.98 2.42,1.88 3.02,5.11 3.01,8 0.02,27.37 -0.03,54.75 0.02,82.13 0.62,6.08 -3.4,11.16 -5.28,16.66 -5.51,0.6 -10.93,1.78 -16.16,3.61 -9.33,-8.21 -18.61,-16.47 -27.9,-24.72 -6.03,3.72 -11.83,7.79 -17.36,12.22 4.62,11.52 9.19,23.05 13.84,34.55 -3.47,4.35 -6.48,9.02 -8.9,14.03 -12.38,0.73 -24.74,1.52 -37.12,2.2 -1.77,6.86 -2.9,13.85 -3.71,20.89 11.38,5 22.86,9.81 34.28,14.74 0.58,5.52 1.77,10.95 3.61,16.19 -5.8,6.55 -11.62,13.07 -17.42,19.62 -9.29,0.04 -18.59,0.01 -27.88,0.01 -1.87,-6.3 -4.32,-12.4 -6.71,-18.52 -10.23,1.56 -20.45,3.12 -30.68,4.69 -2.33,-4.44 -4.88,-8.77 -7.72,-12.91 6.24,-8.23 12.46,-16.48 18.71,-24.71 -4.99,-6.08 -10.26,-11.93 -15.81,-17.51 -8.84,5.35 -17.66,10.75 -26.51,16.1 -3.82,-3.26 -7.83,-6.27 -12.05,-9 2.61,-10.01 5.23,-20.02 7.82,-30.03 -6.91,-3.74 -14.02,-7.09 -21.26,-10.13 -6,8.12 -11.97,16.26 -17.94,24.41 0.03,-44.83 0,-89.65 0.01,-134.48 -0.02,-2.9 0.58,-6.14 3,-8.03" />
    <path
       id="p4"
       d="m 80.31,21.88 c 5.87,-1.45 11.82,-2.53 17.84,-3.15 3.99,9.28 8,18.56 12.02,27.84 4.31,0.46 8.54,1.41 12.63,2.84 7.55,-6.74 15.1,-13.46 22.63,-20.22 5.17,3.16 10.14,6.61 14.85,10.42 -3.75,9.39 -7.48,18.79 -11.22,28.18 2.74,3.37 5.05,7.05 6.98,10.94 10.09,0.56 20.18,1.13 30.27,1.71 1.46,5.87 2.5,11.83 3.12,17.85 -9.28,4.05 -18.6,8 -27.88,12.04 -0.43,4.29 -1.36,8.5 -2.77,12.57 6.72,7.56 13.46,15.12 20.19,22.68 -3.09,5.2 -6.65,10.09 -10.37,14.85 -9.42,-3.73 -18.83,-7.49 -28.25,-11.21 -3.35,2.74 -7.03,5.04 -10.89,6.99 -0.56,10.07 -1.16,20.15 -1.75,30.22 -5.86,1.49 -11.81,2.55 -17.83,3.16 -4.06,-9.32 -7.93,-18.72 -12.15,-27.97 -4.27,-0.29 -8.43,-1.32 -12.47,-2.69 -7.56,6.73 -15.12,13.46 -22.68,20.18 -5.16,-3.14 -10.12,-6.58 -14.83,-10.37 3.7,-9.43 7.5,-18.81 11.22,-28.24 -2.56,-3.11 -4.72,-6.49 -6.57,-10.07 -0.5,-1.33 -2.27,-0.72 -3.32,-1 -9.12,-0.47 -18.24,-1.05 -27.35,-1.55 -1.47,-5.87 -2.56,-11.83 -3.16,-17.85 9.27,-4.02 18.55,-8 27.83,-12 0.48,-4.31 1.42,-8.55 2.82,-12.66 -6.73,-7.55 -13.45,-15.09 -20.16,-22.65 3.12,-5.17 6.6,-10.1 10.37,-14.81 9.43,3.68 18.8,7.5 28.21,11.21 3.35,-2.75 7.01,-5.08 10.91,-6.97 0.61,-10.09 1.17,-20.18 1.76,-30.27" />
    <path
       id="p5"
       d="m 85.77,26.54 c 2.9,-0.72 5.84,-1.23 8.81,-1.58 3.83,8.96 7.7,17.91 11.58,26.85 6.16,0.65 12.21,1.97 18.05,4.01 7.27,-6.49 14.53,-12.97 21.8,-19.45 2.53,1.58 4.97,3.3 7.34,5.12 -3.58,9.08 -7.24,18.11 -10.82,27.19 3.95,4.78 7.22,10.04 10,15.58 9.71,0.55 19.42,1.11 29.13,1.69 0.65,2.9 1.19,5.84 1.54,8.8 -8.95,3.84 -17.88,7.69 -26.83,11.54 -0.59,6.16 -2.01,12.18 -4.02,18.02 6.45,7.32 12.97,14.56 19.44,21.86 -1.56,2.56 -3.28,5.01 -5.19,7.32 -8.97,-3.68 -18.03,-7.13 -27.01,-10.8 -4.86,3.99 -10.27,7.14 -15.78,10.13 -0.35,9.65 -1.09,19.29 -1.54,28.94 -2.89,0.7 -5.82,1.25 -8.77,1.63 -3.98,-8.93 -7.67,-17.98 -11.68,-26.9 -6.14,-0.59 -12.16,-1.96 -17.98,-3.99 -7.27,6.49 -14.56,12.97 -21.85,19.44 -2.53,-1.57 -4.97,-3.28 -7.31,-5.11 3.6,-9.05 7.17,-18.11 10.8,-27.15 -3.82,-4.85 -7.29,-9.96 -9.89,-15.57 -9.73,-0.66 -19.48,-1.15 -29.23,-1.73 -0.68,-2.89 -1.17,-5.82 -1.58,-8.75 8.95,-3.94 17.99,-7.66 26.9,-11.67 0.57,-6.15 1.96,-12.15 3.97,-17.99 -6.47,-7.28 -12.94,-14.55 -19.41,-21.83 1.56,-2.53 3.26,-4.96 5.11,-7.3 9.12,3.55 18.15,7.33 27.32,10.77 4.67,-3.99 9.91,-7.19 15.41,-9.91 0.6,-9.72 1.13,-19.44 1.69,-29.16" />
    <path
       id="p6"
       d="m 97.23,71.21 c 16.54,-3.84 34.63,7.07 39.05,23.43 5.01,15.58 -3.47,33.86 -18.51,40.22 -14.41,6.81 -33.1,1.44 -41.72,-11.97 -9.26,-13.27 -6.88,-32.97 5.31,-43.62 4.44,-4.04 9.98,-6.88 15.87,-8.06" />
    <path
       id="p7"
       d="m 98.55,76.8 c 9.64,-2.01 20.18,1.57 26.54,9.1 8.95,9.92 9.07,26.32 0.18,36.32 -8.17,10.02 -23.66,12.8 -34.83,6.31 C 80.69,123.3 74.85,111.83 76.32,100.87 77.52,89.15 86.96,78.92 98.55,76.8" />
    <path
       id="p8"
       d="m 176.35,115.72 c 3.12,-2.53 6.42,-4.81 9.86,-6.9 9,7.96 17.98,15.94 26.97,23.92 7.01,-2.4 14.22,-4.05 21.6,-4.83 0.3,-0.68 0.91,-2.03 1.22,-2.71 0,9.01 0.01,18.02 -0.01,27.03 -11.93,0.55 -23.46,6.67 -30.58,16.26 -6.52,8.53 -9.29,19.76 -7.74,30.36 1.8,13.2 10.6,25.22 22.68,30.86 3.84,2.05 8.17,2.81 12.33,4 -2,1.3 -4.22,2.35 -6.66,2.27 -21.45,0.04 -42.9,0.02 -64.35,0.01 5.36,-6.08 10.76,-12.12 16.11,-18.21 -2.44,-7 -4.04,-14.23 -4.86,-21.6 -11.04,-4.74 -22.1,-9.46 -33.14,-14.22 0.42,-4 1.09,-7.97 2.07,-11.87 12,-0.71 23.99,-1.44 35.99,-2.15 3.31,-6.65 7.24,-12.93 11.9,-18.71 -4.46,-11.17 -8.93,-22.34 -13.39,-33.51" />
    <path
       id="p9"
       d="m 16.97,164.05 c 5.58,-7.64 11.18,-15.27 16.78,-22.89 4.31,1.79 8.54,3.78 12.65,6 -2.53,9.82 -5.13,19.63 -7.64,29.46 6.31,4.15 12.35,8.68 18.15,13.53 8.68,-5.23 17.32,-10.52 25.99,-15.77 3.33,3.31 6.45,6.8 9.4,10.44 -6.1,8.09 -12.21,16.17 -18.32,24.25 4.23,6.27 8.12,12.75 11.63,19.46 10.02,-1.54 20.05,-3.09 30.07,-4.62 1.63,3.97 3.11,7.98 4.35,12.09 -19.22,-0.08 -38.45,0.17 -57.67,-0.13 -10.12,-20.11 -27.72,-36.23 -48.35,-45.14 -0.03,-8.43 0.01,-16.87 -0.02,-25.31 1.34,0.29 2.33,-0.17 2.98,-1.37" />
    <path
       id="p10"
       d="m 204.61,182.45 c 4.11,-13.63 17.22,-23.82 31.45,-24.46 0,23.29 0.01,46.57 -0.01,69.85 -11.63,-0.36 -22.74,-7.29 -28.4,-17.42 -4.87,-8.35 -5.96,-18.77 -3.04,-27.97" />
    <path
       id="p11"
       d="m 13.95,196.99 c 17.68,8.15 32.64,22.05 42.1,39.06 -11.39,-0.07 -22.78,0.17 -34.16,-0.11 -4.22,-0.07 -7.81,-3.72 -7.84,-7.93 -0.26,-10.33 -0.03,-20.68 -0.1,-31.02" />
  </defs>
  <metadata
     id="metadata5">
    <rdf:RDF>
      <cc:Work
         rdf:about="">
        <dc:format>image/svg+xml</dc:format>
        <dc:type
           rdf:resource="http://purl.org/dc/dcmitype/StillImage" />
        <dc:title></dc:title>
      </cc:Work>
    </rdf:RDF>
  </metadata>
  <g
     id="layer1"
     transform="translate(-23.266871,-29.140433)">
    <g
       id="g2323"
       transform="matrix(0.26458333,0,0,0.26458333,-36.988886,67.216195)">
      <path
         id="path224"
         d="M 350.96053,-117.84303 V 169.1353 h 107.33441 c -0.83833,-10.25665 -4.43234,-20.5359 -6.9225,-30.50557 -3.74993,-15.02004 -7.02193,-30.16097 -10.73231,-45.193438 -11.3187,-45.863437 -22.14592,-91.8771328 -33.05674,-137.839989 -5.73618,-24.160076 -13.89811,-48.807786 -17.0786,-73.439333 z"
         style="fill:#2257bf;stroke:none;stroke-width:1" />
      <path
         id="path896"
         d="m 450.48732,65.206308 c 2.26646,10.980874 5.04585,21.887187 7.76537,32.765251 1.09594,4.381501 1.51511,10.484881 5.95537,12.820241 15.55784,8.1834 30.11803,-5.9 41.64123,-13.906018 7.89755,-5.486481 17.53731,-9.622807 27.11606,-11.003467 16.16004,-2.328592 32.7336,1.8179 46.32327,10.619323 7.59589,4.919312 13.60774,12.633822 22.59672,15.109302 8.31107,2.28792 24.92079,1.60662 28.69444,-8.03879 1.43037,-3.658403 0.68129,-8.525738 0.68129,-12.379608 V 67.465978 c -6.25025,4.077577 -12.49711,8.594664 -20.33704,8.650021 -12.98634,0.09152 -21.66122,-10.749255 -31.63541,-17.283095 -9.9708,-6.532711 -22.07586,-9.718852 -33.89508,-10.472451 -13.43714,-0.856419 -28.31707,3.641459 -39.54425,10.855464 -7.9258,5.093302 -14.60313,12.494857 -23.72656,15.483274 -12.60671,4.129544 -21.51433,-3.191793 -31.63541,-9.492883 z"
         style="fill:#5981cf;stroke:none;stroke-width:1" />
      <path
         id="path1148"
         d="m 461.78568,128.47713 c 1.85294,13.7614 7.25581,26.87089 9.03869,40.67409 13.45296,-0.0373 26.74999,-2.60088 38.41442,-9.5505 10.64871,-6.34516 19.57893,-17.4989 32.76524,-18.26606 12.69597,-0.73891 20.99349,9.69173 30.50557,16.11146 10.35495,6.9903 21.64653,9.93691 33.89508,11.3831 5.3848,0.63497 24.78993,-0.70946 24.98213,-6.90249 0.20185,-6.50407 -0.12574,-6.21717 -0.12574,-9.72305 v -28.2459 c -7.26936,3.39403 -14.12633,8.30995 -22.59672,7.65577 -12.57507,-0.97053 -20.4489,-11.78983 -30.50557,-17.90677 -13.74445,-8.36079 -30.48636,-10.69276 -46.32326,-8.62969 -10.22277,1.33208 -19.90207,5.50569 -28.2459,11.45428 -8.4105,5.99717 -16.28094,14.06533 -27.11607,15.11043 -5.13962,0.496 -9.96854,-1.40552 -14.68787,-3.16467 z"
         style="fill:#2257bf;stroke:none;stroke-width:1" />
      <path
         id="path1180"
         d="m 239.07688,109.05511 v 58.75147 h 94.90622 v -58.75147 z"
         style="fill:#2257bf;stroke:none;stroke-width:1" />
      <path
         style="fill:#5981cf;fill-opacity:1;stroke:none;stroke-width:1"
         d="M 240.21818,34.895997 V 93.647471 H 335.1244 V 34.895997 Z"
         id="path1180-5" />
      <path
         id="path1180-5-5"
         d="M 240.23368,-36.406255 V 22.345217 H 335.1399 V -36.406255 Z"
         style="fill:#90aadf;fill-opacity:1;stroke:none;stroke-width:1" />
      <path
         style="fill:#2257bf;stroke:none;stroke-width:1"
         d="m 657.07144,-132.56981 v 302.42045 h 21.29194 v -302.42045 z"
         id="path1180-4" />
      <g
         aria-label="DAM "
         id="text3346"
         style="font-size:180.773px;line-height:1.25;font-family:Candara;-inkscape-font-specification:Candara;letter-spacing:13.5581px;fill:#2257bf;fill-opacity:1;stroke-width:1">
        <path
           d="m 829.85687,-68.756651 q 0,25.950811 -16.68266,45.016713 -14.74077,17.0357362 -41.39772,17.9184168 -5.11955,0.1765361 -28.15752,0.1765361 -4.32513,0 -13.06367,-0.2648042 -8.65027,-0.2648041 -12.97541,-0.2648041 -2.55977,0 -2.55977,-2.0301655 0,-9.7094871 0.70615,-29.1284611 0.79441,-19.507242 0.79441,-29.216729 0,-10.150828 -0.79441,-30.364214 -0.70615,-20.301657 -0.70615,-30.364217 0,-1.85363 2.55977,-2.2067 6.26704,-0.70614 20.56646,-0.70614 27.18657,0 35.21896,0.79441 20.91953,2.11843 32.74745,10.59217 11.12178,7.94412 17.56535,22.243549 6.17876,13.505014 6.17876,27.80444 z m -33.80667,0 q 0,-14.917303 -8.91507,-24.361985 -9.00334,-9.797754 -23.83238,-9.797754 -13.59328,0 -13.59328,3.618989 0,5.207816 -0.17654,15.711715 -0.17653,10.415632 -0.17653,15.623448 0,5.119547 0.17653,15.446911 0.17654,10.239095 0.17654,15.446911 0,3.795527 14.12289,3.795527 15.27038,0 24.00891,-10.150827 8.20893,-9.621219 8.20893,-25.332935 z"
           style="font-style:normal;font-variant:normal;font-weight:bold;font-stretch:normal;font-size:180.773px;font-family:'Berlin Sans FB Demi';-inkscape-font-specification:'Berlin Sans FB Demi Bold';fill:#2257bf;fill-opacity:1;stroke-width:1"
           id="path3443" />
        <path
           d="m 973.5221,-8.381295 q 0,1.5888251 -2.2067,2.2067016 -2.64804,0.7061445 -16.41786,0.7061445 -12.62234,0 -16.24133,-0.7061445 -3.00111,-0.6178765 -3.79552,-3.9720626 -3.00112,-12.710602 -4.67821,-13.593282 -1.41229,-0.617877 -23.65584,-0.617877 -15.00557,0 -15.97652,0.794413 -1.50056,1.412289 -3.35419,9.444683 -1.67709,7.3262491 -4.06033,7.9441256 -3.00111,0.7061445 -20.12512,0.7061445 -13.50501,0 -13.50501,-2.5597739 0,-2.2949692 19.94858,-56.4032932 21.62568,-58.521724 23.47931,-64.347414 1.05921,-3.35419 2.4715,-3.35419 2.38324,0 7.32625,0.44134 5.03128,0.44134 7.50279,0.44134 2.38323,0 6.97317,-0.2648 4.67821,-0.35308 6.97318,-0.35308 1.67709,0 3.08938,2.91285 4.32514,9.26815 25.24467,63.553006 21.0078,54.637931 21.0078,57.021169 z m -62.58206,-80.412206 q -1.85363,3.883794 -6.26703,16.8592 -4.76648,13.769818 -4.76648,16.153056 0,1.588825 5.29609,1.765361 2.73631,0.176536 9.00334,0.176536 5.82569,0 6.44357,-1.412289 0.17653,-0.44134 0.17653,-1.235753 0,-2.912846 -4.06033,-16.064788 -3.97206,-12.710601 -5.82569,-16.241323 z"
           style="font-style:normal;font-variant:normal;font-weight:bold;font-stretch:normal;font-size:180.773px;font-family:'Berlin Sans FB Demi';-inkscape-font-specification:'Berlin Sans FB Demi Bold';fill:#2257bf;fill-opacity:1;stroke-width:1"
           id="path3445" />
        <path
           d="m 1127.6029,-8.9109034 q 0,2.73631 -2.5597,2.73631 h -31.2469 q -2.5598,0 -2.5598,-3.0893823 0,-8.9150743 0.6179,-26.7452233 0.7061,-17.830149 0.7061,-26.745223 0,-2.559774 -0.7944,-2.73631 -0.9709,0.529608 -11.8279,27.274831 -6.3553,15.711716 -12.7106,31.335163 -0.8827,2.0301655 -2.2067,2.3832378 -0.4413,0.088268 -3.5307,0.088268 -4.59,0 -5.4727,-1.7653612 -4.7664,-9.7094866 -12.534,-28.2457806 -8.2972,-19.59551 -12.4458,-28.334048 -0.1765,-0.441341 -0.7944,-0.970949 -0.6179,0.794412 -0.6179,2.559774 0,8.65027 0.4413,25.950811 0.4414,17.30054 0.4414,25.9508103 0,3.0893823 -2.4715,3.0893823 h -29.48156 q -1.76536,0 -2.2067,-0.5296084 -0.35307,-0.6178765 -0.35307,-2.0301655 0,-9.6212187 0.88268,-28.8636567 0.97094,-19.330706 0.97094,-28.951925 0,-10.239096 -0.88268,-38.396611 -0.0883,-7.32625 -0.79441,-21.80221 l -0.0883,-1.50056 q -0.0883,-1.76536 3.70726,-1.76536 4.85471,0 14.56421,-0.2648 9.7095,-0.35307 14.5643,-0.35307 0.9709,0 2.7363,3.70726 l 25.7742,56.579824 q 2.7363,5.737424 4.59,5.737424 0.9709,0 4.1486,-6.620105 8.9151,-18.536293 26.3921,-55.873683 1.5006,-3.44246 3.2659,-3.44246 2.5598,0 7.6794,0.26481 5.2078,0.2648 7.8558,0.2648 2.2067,0 6.7084,-0.44134 4.5899,-0.44134 6.7966,-0.44134 2.6481,0 2.6481,2.11844 0,10.41563 -0.7944,31.158622 -0.7062,20.654727 -0.7062,31.070359 0,9.621219 0.7944,28.863657 0.7944,19.242438 0.7944,28.7753886 z"
           style="font-style:normal;font-variant:normal;font-weight:bold;font-stretch:normal;font-size:180.773px;font-family:'Berlin Sans FB Demi';-inkscape-font-specification:'Berlin Sans FB Demi Bold';fill:#2257bf;fill-opacity:1;stroke-width:1"
           id="path3447" />
      </g>
      <text
         xml:space="preserve"
         id="text3350"
         style="font-weight:bold;font-size:40px;line-height:1.25;font-family:Candara;-inkscape-font-specification:'Candara Bold';white-space:pre;shape-inside:url(#rect3352);" />
      <g
         aria-label="IT"
         id="text3346-0"
         style="font-size:180.773px;line-height:1.25;font-family:Candara;-inkscape-font-specification:Candara;letter-spacing:39.5443px;fill:#2257bf;fill-opacity:1;stroke-width:1">
        <path
           d="m 767.42319,92.268512 q 0,10.415628 0.52961,31.335158 0.52961,20.91954 0.52961,31.33517 0,1.76536 -0.79441,2.2067 -0.17654,0.0883 -2.29497,0.35307 -5.73743,0.70615 -15.35864,0.70615 -12.88714,0 -16.41786,-0.70615 -2.55978,-0.52961 -2.55978,-2.73631 0,1.41229 0.79441,-15.53518 1.58883,-35.74856 1.58883,-46.958608 0,-9.444683 -0.61788,-28.334048 -0.61787,-18.889366 -0.61787,-28.334049 0,-1.941897 2.03016,-1.941897 2.73631,0 8.20893,0.264804 5.56089,0.264804 8.2972,0.264804 2.73631,0 8.03239,-0.264804 5.38436,-0.264804 8.12067,-0.264804 2.55977,0 2.55977,1.941897 0,9.444683 -1.05922,28.334049 -0.97095,18.889365 -0.97095,28.334048 z"
           style="font-style:normal;font-variant:normal;font-weight:bold;font-stretch:normal;font-size:180.773px;font-family:'Berlin Sans FB Demi';-inkscape-font-specification:'Berlin Sans FB Demi Bold';fill:#2257bf;fill-opacity:1;stroke-width:1"
           id="path3450" />
        <path
           d="m 911.12381,60.668545 q 0,1.765362 -1.9419,1.765362 -3.35419,0 -26.56869,-1.324021 -0.5296,22.33182 -0.5296,31.158626 0,10.415628 0.79441,31.335158 0.88268,20.91954 0.88268,31.33517 0,1.67709 -0.79441,2.11843 -0.26481,0.17654 -2.47151,0.44134 -5.29608,0.70615 -15.53518,0.70615 -11.38658,0 -15.97652,-0.70615 -2.4715,-0.44134 -2.4715,-2.73631 0,-10.41563 0.88268,-31.24689 0.88268,-20.83127 0.88268,-31.246898 0,-6.884909 -0.70615,-30.717286 -17.65361,1.765361 -28.15751,1.765361 -1.41229,0 -1.41229,-0.88268 0,-1.147485 1.23575,-6.796641 1.41229,-6.178765 1.58883,-7.502786 0.2648,-4.148599 0.61788,-8.297198 0.61787,-6.620105 2.11843,-6.620105 0.17654,0 1.23575,0.08827 14.29943,1.85363 42.2804,1.85363 7.94413,0 29.305,-1.677093 11.47485,-0.882681 11.56312,-0.882681 1.76536,0 2.03016,0.264804 0.26481,0.176536 0.35308,1.677093 0,2.383238 -0.17654,6.620105 -0.17654,4.678208 -0.17654,6.620105 0,2.206702 0.52961,6.531837 0.61788,4.236867 0.61788,6.3553 z"
           style="font-style:normal;font-variant:normal;font-weight:bold;font-stretch:normal;font-size:180.773px;font-family:'Berlin Sans FB Demi';-inkscape-font-specification:'Berlin Sans FB Demi Bold';fill:#2257bf;fill-opacity:1;stroke-width:1"
           id="path3452" />
      </g>
      <text
         xml:space="preserve"
         id="text3383"
         style="font-weight:bold;font-size:40px;line-height:1.25;font-family:Candara;-inkscape-font-specification:'Candara Bold';white-space:pre;shape-inside:url(#rect3385);" />
      <text
         xml:space="preserve"
         id="text3437"
         style="font-weight:bold;font-size:40px;line-height:1.25;font-family:Candara;-inkscape-font-specification:'Candara Bold';white-space:pre;shape-inside:url(#rect3439);" />
    </g>
  </g>
</svg>
